<?xml version="1.0" standalone="no"?>
<!DOCTYPE svg PUBLIC "-//W3C//DTD SVG 20010904//EN"
 "http://www.w3.org/TR/2001/REC-SVG-20010904/DTD/svg10.dtd">
<svg version="1.0" xmlns="http://www.w3.org/2000/svg"
 width="448.000000pt" height="448.000000pt" viewBox="0 0 448.000000 448.000000"
 preserveAspectRatio="xMidYMid meet">

<g transform="translate(0.000000,448.000000) scale(0.100000,-0.100000)"
fill="#000000" stroke="none">
<path d="M2095 3346 c-152 -36 -253 -92 -360 -200 -122 -124 -182 -244 -206
-412 -34 -243 79 -515 271 -655 33 -24 60 -44 60 -46 0 -1 -28 -16 -61 -33
-156 -79 -289 -198 -382 -340 -96 -149 -144 -291 -161 -478 l-6 -62 89 0 90 0
6 57 c28 252 147 460 341 599 233 166 544 195 803 74 166 -78 313 -225 392
-393 32 -69 64 -190 74 -280 l6 -57 90 0 89 0 -6 63 c-33 363 -228 658 -541
816 -35 17 -63 32 -63 34 0 1 27 22 60 46 192 140 305 412 271 655 -24 168
-84 288 -206 412 -137 139 -285 203 -480 210 -72 2 -131 -1 -170 -10z m328
-199 c133 -52 235 -144 298 -272 101 -205 62 -440 -101 -606 -105 -107 -229
-159 -380 -159 -151 0 -275 52 -380 159 -119 120 -173 279 -152 440 30 222
182 393 407 457 78 22 224 13 308 -19z"/>
</g>
</svg>
